<?xml version="1.0" standalone="no"?>
<!DOCTYPE svg PUBLIC "-//W3C//DTD SVG 20010904//EN"
 "http://www.w3.org/TR/2001/REC-SVG-20010904/DTD/svg10.dtd">
<svg version="1.0" xmlns="http://www.w3.org/2000/svg"
 width="66.000000pt" height="70.000000pt" viewBox="0 0 66.000000 70.000000"
 preserveAspectRatio="xMidYMid meet">

<g transform="translate(0.000000,70.000000) scale(0.100000,-0.100000)"
fill="#000000" stroke="none">
<path d="M142 677 c-16 -17 -19 -26 -11 -34 8 -8 6 -24 -5 -57 -9 -26 -16 -79
-16 -119 0 -58 5 -83 28 -132 16 -33 36 -66 45 -74 13 -10 17 -31 17 -92 l0
-78 -87 -3 c-82 -3 -88 -5 -102 -29 -8 -14 -11 -33 -8 -42 6 -15 35 -17 282
-17 l275 0 0 28 c0 51 -17 61 -110 64 -85 3 -85 3 -88 31 l-3 27 71 0 c41 0
86 6 107 15 21 9 49 13 63 10 19 -4 31 0 45 15 18 20 16 21 -79 118 l-97 99 7
42 c6 35 12 44 40 56 50 21 46 85 -5 85 -31 0 -51 -16 -51 -41 0 -13 -12 -19
-51 -24 l-51 -7 -92 91 c-50 50 -94 91 -97 91 -3 0 -15 -10 -27 -23z m257
-237 c123 -127 221 -234 217 -237 -9 -9 -466 448 -460 459 3 4 9 8 13 8 4 0
108 -104 230 -230z m143 -249 c-16 -9 -56 -15 -102 -15 l-75 -1 -6 49 c-3 31
-12 53 -24 62 -26 19 -85 17 -108 -3 -18 -17 -20 -17 -34 2 -46 61 -58 100
-58 185 0 47 6 98 13 114 l13 30 204 -204 205 -205 -28 -14z m-15 363 c8 -22
-18 -37 -36 -20 -7 8 -10 19 -7 25 10 16 36 13 43 -5z m-100 -71 c-14 -14 -18
-14 -33 -2 -16 13 -15 14 12 20 37 7 42 3 21 -18z m28 -33 c-5 -16 -10 -19
-18 -11 -7 7 -6 15 3 26 7 8 15 13 17 11 3 -2 2 -14 -2 -26z m-131 -186 c11
-10 16 -34 16 -70 l0 -54 -61 0 -61 0 4 56 c3 40 10 61 23 70 25 19 60 18 79
-2z m16 -159 c0 -11 -13 -15 -54 -15 -51 0 -74 9 -59 24 3 3 30 6 60 6 40 0
53 -4 53 -15z m188 -47 c35 -35 19 -38 -243 -38 -241 0 -255 1 -255 18 0 10 3
22 7 25 12 13 478 8 491 -5z"/>
<path d="M262 248 c-30 -30 1 -73 36 -51 23 14 25 29 7 47 -20 19 -27 20 -43
4z m28 -28 c0 -5 -2 -10 -4 -10 -3 0 -8 5 -11 10 -3 6 -1 10 4 10 6 0 11 -4
11 -10z"/>
</g>
</svg>
